<svg xmlns="http://www.w3.org/2000/svg" viewBox="0 0 168.54 180.14"><defs><style>.cls-1{fill:#6635cc;}.cls-2{fill:#e03b99;}.cls-3{fill:#8200ff;}</style></defs><g id="Layer_2" data-name="Layer 2"><g id="Layer_1-2" data-name="Layer 1"><path class="cls-1" d="M160.7,129.45l-4.23-2.63-28.54-17.74a42.36,42.36,0,0,1-37.86,23.34H88.89c-.55,0-1.1,0-1.64-.09l-.37,0-.84-.07c-.41,0-.83-.08-1.25-.14l-1-.14c-1-.15-2.05-.34-3.05-.57-.65-.14-1.3-.31-1.94-.49-1.12-.3-2.22-.66-3.3-1.06l-.93-.35q-1.73-.67-3.36-1.5l-.9-.46c-.3-.15-.59-.31-.88-.48-1.16-.65-2.29-1.35-3.38-2.11-.55-.37-1.08-.76-1.61-1.17s-1.12-.87-1.66-1.33l-.65-.56c-.25-.21-.5-.44-.74-.67s-.49-.44-.72-.68-.48-.46-.71-.7-.51-.52-.76-.79c-.43-.46-.85-.92-1.26-1.4q-1-1.14-1.86-2.34c-.38-.51-.75-1-1.1-1.54a42.17,42.17,0,0,1-3.46-6.2c-.1-.2-.18-.4-.27-.6-.31-.72-.61-1.45-.88-2.2-.12-.32-.24-.63-.34-1s-.22-.64-.32-1c-.06-.18-.12-.37-.17-.56a6.13,6.13,0,0,1-.18-.61c-.17-.59-.33-1.19-.47-1.79-.08-.33-.15-.66-.22-1s-.14-.67-.2-1-.11-.56-.15-.84-.13-.81-.18-1.21-.08-.58-.11-.88-.09-.8-.12-1.21-.05-.59-.07-.89-.05-.81-.06-1.22,0-1,0-1.54A42.36,42.36,0,0,1,125.2,66.4l28.52-15.24.07,0,7.4-4L163.43,46l4-2.12a90.09,90.09,0,0,0-164.47,69l.06.23a90.1,90.1,0,0,0,165.56,21.21Z"/><path class="cls-2" d="M168.54,134.32A90.09,90.09,0,0,1,3,113.11l-.06-.23c-.11-1.78-.17-3.57-.17-5.38a86,86,0,0,1,151-56.34L125.2,66.4A42.36,42.36,0,0,0,47.72,90.07c0,.52,0,1,0,1.54s0,.82.06,1.22,0,.59.07.89.07.81.12,1.21.07.59.11.88.11.81.18,1.21.09.56.15.84.13.68.2,1,.14.67.22,1c.14.6.3,1.2.47,1.79a6.13,6.13,0,0,0,.18.61c.05.19.11.38.17.56.1.33.21.65.32,1s.22.63.34,1c.27.75.57,1.48.88,2.2.09.2.17.4.27.6a42.17,42.17,0,0,0,3.46,6.2c.35.52.72,1,1.1,1.54q.89,1.2,1.86,2.34c.41.48.83.94,1.26,1.4.25.27.5.53.76.79s.47.47.71.7.48.46.72.68.49.46.74.67l.65.56c.54.46,1.09.9,1.66,1.33s1.06.8,1.61,1.17c1.09.76,2.22,1.46,3.38,2.11.29.17.58.33.88.48l.9.46q1.63.83,3.36,1.5l.93.35c1.08.4,2.18.76,3.3,1.06.64.18,1.29.35,1.94.49,1,.23,2,.42,3.05.57l1,.14c.42.06.84.1,1.25.14l.84.07.37,0c.54,0,1.09.07,1.64.09h1.18a42.36,42.36,0,0,0,37.86-23.34l28.54,17.74,4.23,2.63Z"/><path class="cls-3" d="M156.47,126.82C145.28,139.7,128.09,148,108.81,148c-33.72,0-61.06-25.22-61.06-56.34,0,.41,0,.82.06,1.22s0,.6.07.89.07.81.12,1.21.07.58.11.88.11.81.18,1.21.09.56.15.84.13.67.2,1,.14.67.22,1c.14.6.3,1.2.47,1.79.05.2.11.41.18.61s.11.37.17.56.21.65.32,1,.22.64.34,1c.27.75.57,1.48.88,2.2l.27.6a42.17,42.17,0,0,0,3.46,6.2c.35.52.72,1,1.1,1.54q.9,1.2,1.86,2.34c.41.47.83.94,1.26,1.4.25.27.5.53.76.79s.47.47.71.7l.72.68.74.67.65.56c.54.46,1.09.9,1.66,1.33s1.06.79,1.61,1.17c1.09.76,2.22,1.46,3.38,2.11l.88.48.9.46q1.63.83,3.36,1.5l.93.35c1.08.4,2.18.76,3.3,1.06.64.18,1.29.35,1.94.49,1,.23,2,.42,3.05.57l1,.14c.42.06.84.1,1.25.14l.84.07.37,0c.54,0,1.09.07,1.64.09h1.18a42.36,42.36,0,0,0,37.86-23.34Z"/></g></g></svg>